<svg height="512" viewBox="0 0 512 512" width="512" xmlns="http://www.w3.org/2000/svg"><g id="Flat"><path d="m313.15 394.79a64.07477 64.07477 0 0 0 3.03992 25.79l8.98 26.92a30.77121 30.77121 0 0 1 -29.18992 40.5h-79.96a30.77121 30.77121 0 0 1 -29.18994-40.5l8.98-26.92a64.07477 64.07477 0 0 0 3.03994-25.79l-13.79995-158.77a63.812 63.812 0 0 1 2.35986-23.6l36.59009-124.42v-32h64v32l36.59009 124.42a63.812 63.812 0 0 1 2.35986 23.6z" fill="#dc9265"/><path d="m304.80005 40-.80005 16h-96v-16a15.99552 15.99552 0 0 1 16-16h64.80005a15.9956 15.9956 0 0 1 16 16z" fill="#bc8d5d"/><path d="m304.80005 40-.80005 16h-16l.8-24a15.94121 15.94121 0 0 0 -2.14014-8h2.14014a15.9956 15.9956 0 0 1 16.00005 16z" fill="#a1764a"/><g fill="#ad693d"><circle cx="224.805" cy="256" r="8"/><circle cx="224.805" cy="288" r="8"/><circle cx="224.805" cy="320" r="8"/><circle cx="224.805" cy="352" r="8"/><circle cx="256.805" cy="256" r="8"/><circle cx="256.805" cy="288" r="8"/><circle cx="256.805" cy="320" r="8"/><circle cx="256.805" cy="352" r="8"/><circle cx="288.805" cy="256" r="8"/><circle cx="288.805" cy="288" r="8"/><circle cx="288.805" cy="320" r="8"/><circle cx="288.805" cy="352" r="8"/><path d="m313.15 394.79a64.07477 64.07477 0 0 0 3.03992 25.79l8.98 26.92a30.77121 30.77121 0 0 1 -29.18992 40.5h-79.96a30.79829 30.79829 0 0 1 -27.05-16.11 30.66941 30.66941 0 0 0 14.65 3.71h79.95007a30.77162 30.77162 0 0 0 29.18993-40.5l-8.97-26.93a63.85107 63.85107 0 0 1 -3.04-25.78l13.80005-158.77a64.02638 64.02638 0 0 0 -2.36011-23.6l-33.60986-114.29a41.4157 41.4157 0 0 0 -39.73008-29.73h49.15v32l36.59009 124.42a63.812 63.812 0 0 1 2.35986 23.6z"/></g><path d="m24 280h128v176h-128z" fill="#3ea7ff"/><path d="m132 280h20v176h-20z" fill="#2b7cd4"/><path d="m152 456-8 32h-112l-8-32z" fill="#e6e6e6"/><path d="m152 456-8 32h-112l-4-16h83.50759a21.12309 21.12309 0 0 0 20.49241-16z" fill="#ccc"/><path d="m152 280h-128l8-32h112z" fill="#e6e6e6"/><path d="m152 280h-20l-3.46-13.82a24.00288 24.00288 0 0 0 -23.28-18.18h38.74z" fill="#ccc"/><path d="m96 209.94a52.97109 52.97109 0 0 1 -1.89 14.06 54.07428 54.07428 0 0 1 -2.16 6.32 53.22331 53.22331 0 0 1 -11.55 17.28l-.4.4h-16l-.4-.4a53.265 53.265 0 0 1 -15.6-37.66c0-.65.03-1.3.09009-1.94a23.989 23.989 0 0 1 46.07983-7.24 23.52732 23.52732 0 0 1 1.74 7.24c.06008.64.09008 1.29.09008 1.94z" fill="#ccc"/><path d="m152 280v46.06a81.94179 81.94179 0 0 1 -20 53.64q-1.92 2.22-4 4.3a81.93463 81.93463 0 0 0 -24 57.94v14.06h-32v-46.06a81.95323 81.95323 0 0 1 24-57.94 81.93474 81.93474 0 0 0 24-57.94v-14.06z" fill="#eb352f"/><path d="m152 280v46.06a81.94179 81.94179 0 0 1 -20 53.64v-99.7z" fill="#c7161f"/><path d="m96 209.94a52.97109 52.97109 0 0 1 -1.89 14.06h-44.22a52.97109 52.97109 0 0 1 -1.89-14.06c0-.65.03-1.3.09009-1.94h47.81982c.06009.64.09009 1.29.09009 1.94z" fill="#b3b3b3"/><path d="m376 96h96v48h-96z" fill="#eb352f"/><path d="m456 96h16v48h-16z" fill="#c7161f" transform="matrix(-1 0 0 -1 928 240)"/><path d="m483.03 276.97-11.03 11.03 11.03 11.03a16.97819 16.97819 0 0 1 4.97 12v113.94a17.03463 17.03463 0 0 1 -4.97 12l-11.03 11.03 11.03 11.03a16.97061 16.97061 0 0 1 -12 28.97h-94.06a16.97061 16.97061 0 0 1 -12-28.97l11.03-11.03-11.03-11.03a16.97819 16.97819 0 0 1 -4.97-12v-113.94a16.97819 16.97819 0 0 1 4.97-12l11.03-11.03-11.03-11.03a16.97819 16.97819 0 0 1 -4.97-12v-65.94a16.97819 16.97819 0 0 1 4.97-12l27.03-27.03v-16h64v16l27.03 27.03a16.97819 16.97819 0 0 1 4.97 12v65.94a16.97819 16.97819 0 0 1 -4.97 12z" fill="#e6e6e6"/><rect fill="#eb352f" height="80" rx="8" width="128" x="360" y="192"/><path d="m449.49023 428.6499a104.35517 104.35517 0 0 1 0-121.2998l13.01954 9.2998a88.355 88.355 0 0 0 0 102.7002z" fill="#ccc"/><path d="m398.50977 428.6499-13.01954-9.2998a88.355 88.355 0 0 0 0-102.7002l13.01954-9.2998a104.35517 104.35517 0 0 1 0 121.2998z" fill="#ccc"/><path d="m486.47 432a16.90911 16.90911 0 0 1 -3.43994 4.97l-11.03006 11.03h-72v-16z" fill="#ccc"/><path d="m483.03 276.97-11.03 11.03 11.03 11.03a16.97819 16.97819 0 0 1 4.97 12v113.94a17.03463 17.03463 0 0 1 -4.97 12l-11.03 11.03 11.03 11.03a16.97061 16.97061 0 0 1 -12 28.97h-94.06a16.98047 16.98047 0 0 1 -15.87-10.95v-5.05h85.93a16.97091 16.97091 0 0 0 12-28.97l-11.03-11.03 11.03-11.03a17.03463 17.03463 0 0 0 4.97-12v-113.94a16.97819 16.97819 0 0 0 -4.97-12l-11.03-11.03 11.03-11.03a16.97819 16.97819 0 0 0 4.97-12v-65.94a16.97819 16.97819 0 0 0 -4.97-12l-27.03-27.03h24v16l27.03 27.03a16.97819 16.97819 0 0 1 4.97 12v65.94a16.97819 16.97819 0 0 1 -4.97 12z" fill="#ccc"/><path d="m488 200v64a7.99786 7.99786 0 0 1 -8 8h-32l11.03-11.03a16.97819 16.97819 0 0 0 4.97-12v-56.97h16a7.99782 7.99782 0 0 1 8 8z" fill="#c7161f"/></g></svg>