<svg height="512" viewBox="0 0 512 512" width="512" xmlns="http://www.w3.org/2000/svg"><g id="flat"><path d="m470.974 151.975a31.992 31.992 0 0 0 -23.428-59.127 31.968 31.968 0 0 0 -36.714-15.877 31.971 31.971 0 0 0 -36.714-15.871 31.97 31.97 0 0 0 -36.718-15.882 31.992 31.992 0 0 0 -59.127 23.428 31.971 31.971 0 0 0 -15.873 36.714 31.97 31.97 0 0 0 -15.877 36.715 31.969 31.969 0 0 0 -15.876 36.714 31.971 31.971 0 0 0 -15.877 36.711 31.971 31.971 0 0 0 -15.876 36.714 31.993 31.993 0 0 0 23.428 59.128 31.969 31.969 0 0 0 36.714 15.876 31.971 31.971 0 0 0 36.714 15.882 31.971 31.971 0 0 0 36.714 15.876 31.993 31.993 0 0 0 59.128-23.428 31.969 31.969 0 0 0 15.876-36.714 31.973 31.973 0 0 0 15.877-36.714 31.971 31.971 0 0 0 15.876-36.72 31.971 31.971 0 0 0 15.879-36.711 31.969 31.969 0 0 0 15.876-36.714z" fill="#f3af3e"/><circle cx="136.025" cy="199.975" fill="#fd9226" r="112"/><g fill="#d18d28"><path d="m323.112 86.93h16.001v15.999h-16.001z" transform="matrix(.397 -.918 .918 .397 112.572 361.177)"/><path d="m304.061 130.987h16v16h-16z" transform="matrix(.397 -.918 .918 .397 60.616 370.234)"/><path d="m285.009 175.045h16.001v15.999h-16.001z" transform="matrix(.397 -.918 .918 .397 8.712 379.347)"/><path d="m265.958 219.101h16v16h-16z" transform="matrix(.397 -.918 .918 .397 -43.236 388.397)"/><path d="m246.905 263.159h16.001v15.999h-16.001z" transform="matrix(.397 -.918 .918 .397 -95.148 397.518)"/><path d="m367.17 105.981h16v16h-16z" transform="matrix(.397 -.918 .918 .397 121.624 413.077)"/><path d="m348.118 150.039h16v16h-16z" transform="matrix(.397 -.918 .918 .397 69.697 422.159)"/><path d="m329.066 194.096h16.001v15.999h-16.001z" transform="matrix(.397 -.918 .918 .397 17.797 431.277)"/><path d="m310.014 238.153h16v16h-16z" transform="matrix(.397 -.918 .918 .397 -34.155 440.323)"/><path d="m290.962 282.211h16.001v15.999h-16.001z" transform="matrix(.397 -.918 .918 .397 -86.063 449.447)"/></g><path d="m85.051 213.358h15.999v16.001h-15.999z" fill="#e08122" transform="matrix(.895 -.445 .445 .895 -88.867 64.63)"/><path d="m106.433 256.332h15.999v15.999h-15.999z" fill="#e08122" transform="matrix(.895 -.445 .445 .895 -105.767 78.649)"/><path d="m128.025 191.975h15.999v16.001h-15.999z" fill="#e08122" transform="matrix(.895 -.445 .445 .895 -74.842 81.535)"/><path d="m149.408 234.95h15.999v16h-15.999z" fill="#e08122" transform="matrix(.895 -.445 .445 .895 -91.739 95.547)"/><path d="m170.999 170.593h15.999v15.999h-15.999z" fill="#e08122" transform="matrix(.895 -.445 .445 .895 -60.815 98.434)"/><path d="m63.668 170.383h15.999v16h-15.999z" fill="#e08122" transform="matrix(.895 -.445 .445 .895 -71.955 50.597)"/><path d="m106.643 149.001h15.999v15.999h-15.999z" fill="#e08122" transform="matrix(.895 -.445 .445 .895 -57.934 67.505)"/><path d="m149.617 127.618h15.999v16.001h-15.999z" fill="#e08122" transform="matrix(.895 -.445 .445 .895 -43.912 84.415)"/><path d="m192.381 213.568h16v16h-16z" fill="#e08122" transform="matrix(.895 -.446 .446 .895 -77.725 112.473)"/><path d="m411.227 125.033h16v16h-16z" fill="#d18d28" transform="matrix(.397 -.918 .918 .397 130.706 465.004)"/><path d="m392.175 169.091h16v16h-16z" fill="#d18d28" transform="matrix(.397 -.918 .918 .397 78.779 474.086)"/><path d="m373.124 213.147h16v16h-16z" fill="#d18d28" transform="matrix(.397 -.918 .918 .397 26.854 483.167)"/><path d="m354.072 257.205h16v16h-16z" fill="#d18d28" transform="matrix(.397 -.918 .918 .397 -25.073 492.249)"/><path d="m335.02 301.262h16v16h-16z" fill="#d18d28" transform="matrix(.397 -.918 .918 .397 -76.998 501.33)"/><path d="m280 376a26.362 26.362 0 0 0 -18.32-25.1 26.357 26.357 0 0 0 -25.1-43.477 26.357 26.357 0 0 0 -43.477-25.1 26.357 26.357 0 0 0 -50.2 0 26.357 26.357 0 0 0 -43.477 25.1 26.357 26.357 0 0 0 -25.106 43.477 26.357 26.357 0 0 0 0 50.2 26.357 26.357 0 0 0 25.1 43.477 26.357 26.357 0 0 0 43.477 25.1 26.357 26.357 0 0 0 50.2 0 26.357 26.357 0 0 0 43.477-25.1 26.357 26.357 0 0 0 25.1-43.477 26.362 26.362 0 0 0 18.326-25.1z" fill="#f6bb92"/><path d="m112 376h16v16h-16z" fill="#cd9c7a"/><path d="m160 376h16v16h-16z" fill="#cd9c7a"/><path d="m160 424h16v16h-16z" fill="#cd9c7a"/><path d="m208 376h16v16h-16z" fill="#cd9c7a"/><path d="m112 328h16v16h-16z" fill="#cd9c7a"/><path d="m160 328h16v16h-16z" fill="#cd9c7a"/><path d="m208 328h16v16h-16z" fill="#cd9c7a"/><path d="m112 424h16v16h-16z" fill="#cd9c7a"/><path d="m208 424h16v16h-16z" fill="#cd9c7a"/></g></svg>