<svg height="512" viewBox="0 0 44 60" width="512" xmlns="http://www.w3.org/2000/svg"><g id="Page-1" fill="none" fill-rule="evenodd"><g id="025---Cupcake" fill-rule="nonzero" transform="translate(-1)"><path id="Shape" d="m41.93 41.45v.01c-.323 1.789-1.84 8.633-7.531 16.963-.2808311.4111778-.7040891.7036819-1.188.821-1.225.296-4.111.756-10.211.756s-8.986-.46-10.211-.756c-.4839109-.1173181-.9071689-.4098222-1.188-.821-5.691-8.33-7.208-15.174-7.531-16.963l3.847-4 29.437-.008z" fill="#e57e25"/><path id="Shape" d="m41.37 25.96c1.546346 2.2815766 2.6896104 4.811641 3.38 7.48.5053408 1.9809723.2483803 4.0794834-.72 5.88-.7955846 1.2444286-1.9446855 2.2229054-3.3 2.81-3.25 1.47-7.96 1.53-10.58-1.23-.078-.083-.155-.168-.229-.257-.2101871-.2470241-.5282313-.3751518-.8509605-.342819s-.6090344.2210075-.7660395.504819c-1.039427 1.965517-3.0805645 3.1950786-5.304 3.1950786s-4.264573-1.2295616-5.304-3.1950786c-.1570051-.2838115-.4433103-.4724862-.7660395-.504819s-.6407734.0957949-.8509605.342819c-.074.089-.151.174-.229.257-2.62 2.76-7.33 2.7-10.58 1.23-1.35531448-.5870946-2.50441539-1.5655714-3.3-2.81-.96838026-1.8005166-1.2253408-3.8990277-.72-5.88.51055012-2.0975785 1.34022159-4.1043042 2.46-5.95l5.457-4.24 27.416-1z" fill="#f0c419"/><path id="Shape" d="m32.25 16.47c2.7644155 1.1960843 5.2299922 2.9889206 7.22 5.25.6191817.6612526 1.1228596 1.4218401 1.49 2.25.2.49.69 1.43.41 1.99-.0903726.1740778-.2443895.306604-.43.37-.2375508.0750225-.4924492.0750225-.73 0-.9-.24-1.79-.53-2.69-.8-.5840591-.2482071-1.2432632-.2518094-1.83-.01-1.19.71-.36 2.57-.28 3.59.09 1.25-.54 3.33-2.22 2.78-.6570388-.2952304-1.185918-.8170106-1.49-1.47-.57-1-1.02-2.08-1.66-3.04-.6038914-1.0004913-1.5483278-1.7496495-2.66-2.11-1.141322-.3408446-2.3677969.1423122-2.97 1.17-.62 1.29.22 2.86-.21 4.22-.2314489.7832403-.8931776 1.3632261-1.7 1.49-.8157215.0992013-1.5902169-.3838173-1.86-1.16-.24-.82.21-1.66.31-2.51.1413464-1.4812197-.8043254-2.8490664-2.24-3.24-1.2008495-.2491379-2.4324236.2577479-3.11 1.28-.79 1.23-.33 2.94.01 4.25.3539207.9746191.3071747 2.0497764-.13 2.99-.5068178.8771279-1.5174165 1.3323069-2.5101534 1.1305864s-1.7455453-1.0152174-1.8698466-2.0205864c-.21-1.67 1.36-3.34.76-4.91-.3034524-.71436-.9608635-1.2159684-1.73-1.32-.87483263-.0956712-1.74600533.209423-2.37.83-.39.36-.74.76-1.15 1.1-.28159428.2565609-.626979.4327071-1 .51-.78323144.0652226-1.51133836-.4078412-1.77-1.15-.05837281-.1417975-.10193748-.2892472-.13-.44-.09019696-.5016972-.06971972-1.0170413.06-1.51.25753849-.9561714.68060018-1.8598311 1.25-2.67 1.03224563-1.4135815 2.30089343-2.6382496 3.75-3.62.92681387-.6484753 1.8882358-1.2460258 2.88-1.79 1.1982345-.6693025 2.4450797-1.247598 3.73-1.73z" fill="#805333"/><path id="Shape" d="m20.83 20.43c-.01 0-.03-.01-.04-.01-2.2427361-.7443552-4.1558351-2.2472518-5.41-4.25-2.07-3.35-1.88-7.64 1.03-10.26.6836831-.62808176 1.5008137-1.09305982 2.39-1.36 1.4518595-.39044535 3.0025533-.09577669 4.21.8.6371398.46559471 1.1322509 1.0991984 1.43 1.83.1139445.26688387.3359727.47274544.6106936.56622686s.5762296.06576783.8293064-.07622686c.6786392-.39485346 1.4553873-.58904047 2.24-.56 1.5027424.03871717 2.9071791.75564167 3.82 1.95.5461839.76115097.9120803 1.6365667 1.07 2.56.3141603 1.6559261.0456341 3.3695468-.76 4.85-1.0087297 1.7902629-2.6162605 3.1676406-4.54 3.89" fill="#df4d60"/><path id="Shape" d="m24.942 8.691c-.5522847 0-1-.44771525-1-1 0-1.731.873-4.8 3.279-6.164 2.047-1.16 4.615-.83 7.631.978.4598944.28980801.6040531.89391202.3245776 1.36015761-.2794755.4662456-.8802129.62384624-1.3525776.35484239-2.352-1.41-4.242-1.73-5.617-.952-1.711.969-2.265 3.4-2.265 4.423 0 .55228475-.4477153 1-1 1z" fill="#24ae5f"/><path id="Shape" d="m23.6 21.508c-2.5973689.0201133-5.1926055-.1540389-7.764-.521-.545105-.0894702-.9144701-.603895-.8249999-1.149.0894701-.545105.6038949-.9144701 1.1489999-.825 4.9256645.650453 9.9148314.6602007 14.843.029.3544075-.0455514.7061949.1014315.9228472.3855817.2166524.2841502.2652552.6622985.1275.9920001-.1377551.3297015-.4409397.5608669-.7953472.6064182-2.5398453.3230814-5.0976892.4840739-7.658.482z" fill="#603e26"/><g fill="#d25627"><path id="Shape" d="m16 57c-.3346327.0003846-.6472789-.1666353-.833-.445-2.051-3.076-4.033-8.989-4.117-9.239-.1128959-.3394023-.0361471-.7132523.201336-.9807242.237483-.2674719.599621-.3879304.95-.316.350379.0719305.6357681.3253219.748664.6647242.019.059 1.981 5.909 3.883 8.761.2048322.3070079.2239138.7018785.0496385 1.0272063-.1742753.3253279-.5135722.5282182-.8826385.5277937z"/><path id="Shape" d="m20 56c-.5522847 0-1-.4477153-1-1v-7c0-.5522847.4477153-1 1-1s1 .4477153 1 1v7c0 .5522847-.4477153 1-1 1z"/><path id="Shape" d="m30 57c-.3687074-.0003134-.7073293-.2034902-.88111-.5286756s-.1545228-.719615.05011-1.0263244c1.9-2.855 3.864-8.7 3.883-8.761.174522-.5246705.7413295-.8085219 1.266-.634.5246705.174522.808522.7413295.634 1.266-.084.25-2.066 6.163-4.117 9.239-.1861134.2789559-.4996591.4460551-.835.445z"/><path id="Shape" d="m26 56c-.5522847 0-1-.4477153-1-1v-7c0-.5522847.4477153-1 1-1s1 .4477153 1 1v7c0 .5522847-.4477153 1-1 1z"/></g><path id="Shape" d="m17.708 10.9c-.3275571-.0000402-.6343284-.1604969-.8211918-.4295243-.1868633-.2690274-.2301256-.61251451-.1158082-.9194757.2087875-.63365016.5609145-1.21060466 1.029-1.686.5889499-.59123753 1.4176032-.87790877 2.246-.777.3587172.04741524.6638389.28491166.7978485.62101825.1340097.33610659.0760004.71838758-.1516856.99960863-.2276861.28122105-.5895278.41750906-.9461629.35637312-.2115506.00002362-.4137481.08719645-.559.241-.2492259.26973522-.4353815.59149407-.545.942-.1450394.3907367-.5172153.6505426-.934.652z" fill="#fb7b76"/></g></g></svg>