<svg id="Capa_1" enable-background="new 0 0 511.999 511.999" height="512" viewBox="0 0 511.999 511.999" width="512" xmlns="http://www.w3.org/2000/svg"><g><g><path clip-rule="evenodd" d="m366.218 89.405c-14.627-33.592-52.159-46.377-83.596-28.433-13.238 5.585-26.476 5.953-38.694 2.296-12.388-2.92-23.698-9.865-32.401-21.289-3.402-5.811-7.512-10.801-12.161-14.939-67.353 56.639-9.326 137.828 44.533 171.704 33.195 3.515 66.049-1.021 91.845-15.762 31.409-17.944 45.101-59.984 30.474-93.577z" fill="#fff3da" fill-rule="evenodd"/></g><g><path clip-rule="evenodd" d="m199.366 27.04c-10.687-9.553-24.123-14.542-37.957-14.542h-.028c-12.444 0-25.172 4.025-36.483 12.416-29.453 21.828-38.552 65.087-20.268 96.298 20.24 34.556 60.776 59.474 104.828 71.012 11.339 3.09 22.905 5.301 34.442 6.52-53.86-33.876-111.887-115.065-44.534-171.704z" fill="#ffda8f" fill-rule="evenodd"/></g><g><path clip-rule="evenodd" d="m454.859 195.625c-37.673-13.891-79.882 5.585-93.773 43.287-1.729 5.443-3.43 10.942-5.159 16.442-16.526 52.869-33.705 105.738-74.581 103.215 83.199 7.059 157.497 5.103 196.616-35.633 37.759-39.347 31.749-107.099-23.103-127.311z" fill="#fff3da" fill-rule="evenodd"/></g><g><path clip-rule="evenodd" d="m355.928 255.354c-101.823-41.87-151.601 95.731-74.581 103.215 40.876 2.523 58.054-50.346 74.581-103.215z" fill="#ffda8f" fill-rule="evenodd"/></g><g><path clip-rule="evenodd" d="m142.076 315.594c-.482-36.144-30.558-62.025-66.928-57.575-36.369 4.451-65.652 37.589-65.142 73.761.397 29.737 13.153 60.324 33.053 87.142 56.496 29.227 155.91 37.958 170.537-48.815-5.925-1.899-12.303-2.891-19.049-2.891-14.259-1.673-25.994-7.909-34.782-17.094-9.355-8.675-15.761-20.269-17.689-34.528z" fill="#fff3da" fill-rule="evenodd"/></g><g><path clip-rule="evenodd" d="m253.226 433.209c3.147-29.652-13.748-54.825-39.629-63.103-14.628 86.774-114.041 78.043-170.537 48.816 6.888 9.298 14.656 18.171 23.075 26.364 32.316 32.09 74.355 54.371 114.409 54.258 36.171-.085 68.827-29.879 72.682-66.335z" fill="#ffda8f" fill-rule="evenodd"/></g><g><path d="m206.876 201.885c19.782 5.391 39.389 8.056 58.051 8.056 28.37 0 54.544-6.162 75.778-18.276 35.743-20.42 51.301-68.084 34.681-106.251-8.29-19.038-23.169-32.949-41.899-39.172-18.241-6.06-37.841-4.022-55.262 5.729-10.407 4.267-20.977 4.845-31.43 1.718-.189-.057-.38-.107-.572-.153-10.598-2.498-19.477-8.273-26.398-17.171-10.232-17.145-26.202-28.689-45.039-32.538-19.337-3.946-39.172.687-55.842 13.052-33.458 24.796-43.75 73.867-22.943 109.387 20.474 34.955 60.882 62.514 110.875 75.619zm-3.979-154.855c.205.349.43.686.675 1.008 9.652 12.671 22.709 21.274 37.773 24.896 14.892 4.385 30.502 3.438 45.164-2.748.367-.155.724-.332 1.07-.529 12.562-7.169 26.627-8.745 39.603-4.435 13.269 4.408 23.875 14.414 29.868 28.176 12.67 29.097.887 65.389-26.26 80.898-22.125 12.622-51.871 17.646-83.557 14.696-31.334-20.403-65.448-58.965-68.093-97.299-1.303-18.881 5.332-35.859 19.732-50.584 1.447 1.857 2.798 3.826 4.025 5.921zm-72.041-14.086c9.29-6.892 19.845-10.479 30.47-10.479 3.156 0 6.32.317 9.457.958 4.546.929 8.854 2.522 12.859 4.689-17.693 18.602-26.119 40.837-24.456 64.957 2.229 32.314 21.845 63.65 46.122 87.603-41.277-12.26-75.383-36.059-92.051-64.515-15.803-26.979-7.911-64.307 17.599-83.213z"/><path d="m509.775 243.997c-6.208-26.941-24.964-47.993-51.456-57.755-20.729-7.643-43.265-6.721-63.456 2.6-20.191 9.319-35.52 25.874-43.16 46.613-.052.14-.1.281-.146.423-.69 2.167-1.376 4.345-2.062 6.527-33.55-10.483-65.553-4.174-89.059 17.938-22.174 20.857-31.937 52.192-23.741 76.2 6.315 18.498 21.829 29.855 43.684 31.979.02.002.04.001.061.003.022.002.043.007.065.009 25.261 2.134 46.937 3.19 66.105 3.19 12.109 0 23.219-.422 33.595-1.26 5.505-.445 9.607-5.269 9.163-10.773-.445-5.505-5.268-9.592-10.773-9.162-16.242 1.312-34.463 1.551-55.809.69 5.036-5.265 9.757-11.734 14.19-19.426 12.106-21.004 20.837-48.953 29.281-75.981 1.427-4.567 2.852-9.128 4.29-13.646 5.819-15.633 17.424-28.115 32.7-35.166 15.339-7.08 32.441-7.786 48.157-1.993 20.34 7.495 34.149 22.938 38.883 43.48 5.405 23.459-2.082 49.332-19.53 67.515-3.833 3.984-7.98 7.524-12.681 10.822-4.521 3.172-5.615 9.408-2.443 13.93s9.408 5.615 13.93 2.443c5.688-3.99 10.939-8.476 15.617-13.339 22.073-23.001 31.497-55.902 24.595-85.861zm-227.63 104.599c-13.683-1.375-22.855-7.772-26.522-18.514-5.652-16.559 2.135-39.761 18.517-55.171 10.855-10.211 33.748-24.677 69.374-13.425-14.422 45.538-30.432 88.841-61.369 87.11z"/><path d="m195.165 357.216c-11.164-1.422-20.641-6.133-28.175-14.008-.138-.145-.28-.284-.426-.42-8.001-7.419-12.877-16.829-14.5-27.979-.436-19.934-8.624-37.842-23.1-50.483-14.875-12.989-34.418-18.755-55.03-16.232-41.344 5.06-74.507 42.665-73.926 83.822.544 40.488 22.102 84.42 59.08 120.466 36.601 36.345 80.735 57.166 121.147 57.163h.333c41.167-.098 78.223-33.87 82.603-75.283 2.184-20.646-3.894-40.088-17.112-54.743-12.878-14.279-30.93-22.184-50.894-22.303zm-145.409 53.88c-18.637-25.824-29.408-54.005-29.751-79.456-.441-31.265 24.841-59.838 56.357-63.695 2.33-.285 4.637-.426 6.914-.426 12.28 0 23.641 4.106 32.532 11.871 10.298 8.993 16.076 21.898 16.269 36.338.005.403.035.806.089 1.206 2.133 15.781 9.248 29.715 20.58 40.316 10.777 11.165 24.821 18.042 40.636 19.896.387.046.776.068 1.166.068.049-.005.103-.001.154 0 2.383 0 4.722.167 7.015.467-5.387 19.889-16.658 34.232-33.606 42.696-34.399 17.182-84.914 7.36-118.355-9.281zm193.525 21.061c-3.339 31.569-31.494 57.312-62.766 57.387-.089 0-.176 0-.265 0-32.878 0-70.553-17.263-102.047-46.544 15.114 4.017 31.065 6.409 46.712 6.409 18.442 0 36.453-3.308 52.133-11.139 21.645-10.811 36.542-29.361 43.599-54.054 3.898 2.35 7.455 5.253 10.561 8.696 9.363 10.383 13.652 24.321 12.073 39.245z"/></g><g><path d="m424.273 362.956h-.057c-5.523 0-10-4.478-10-10s4.477-10 10-10 10.028 4.478 10.028 10-4.448 10-9.971 10z"/></g></g></svg>