<svg id="Layer_1_1_" enable-background="new 0 0 64 64" height="512" viewBox="0 0 64 64" width="512" xmlns="http://www.w3.org/2000/svg"><path d="m48 2h-32c-.552 0-1 .448-1 1v45.768l34 .232v-46c0-.552-.448-1-1-1z" fill="#522813"/><path d="m47.059 3.382h-30.118c-.52 0-.941.422-.941.942v43.076l32 .218v-43.294c0-.52-.421-.942-.941-.942z" fill="#612f16"/><g fill="none"><path d="m29 21h6v10h-6z"/><path d="m19 21h6v10h-6z"/><path d="m39 21h6v10h-6z"/><path d="m39 7h6v10h-6z"/></g><path d="m11 33 4 2.25v-5.25z" fill="#606060"/><path d="m54 34-5-4v5.482z" fill="#606060"/><path d="m15 56v5c0 .552.448 1 1 1h32c.552 0 1-.448 1-1v-5z" fill="#612f16"/><path d="m45 44-6 6-12-8-9 9-3-7.714v12.714h34v-11.429z" fill="#f35142"/><path d="m34.4 6h-4.8c-.663 0-1.2.537-1.2 1.2v9.6c0 .663.537 1.2 1.2 1.2h4.8c.663 0 1.2-.537 1.2-1.2v-9.6c0-.663-.537-1.2-1.2-1.2z" fill="#522813"/><path d="m24.4 6h-4.8c-.663 0-1.2.537-1.2 1.2v9.6c0 .663.537 1.2 1.2 1.2h4.8c.663 0 1.2-.537 1.2-1.2v-9.6c0-.663-.537-1.2-1.2-1.2z" fill="#522813"/><path d="m44.4 6h-4.8c-.663 0-1.2.537-1.2 1.2v9.6c0 .663.537 1.2 1.2 1.2h4.8c.663 0 1.2-.537 1.2-1.2v-9.6c0-.663-.537-1.2-1.2-1.2z" fill="#522813"/><path d="m19 7h6v10h-6z" fill="none"/><path d="m44 7h-4c-.552 0-1 .448-1 1v8c0 .552.448 1 1 1h4c.552 0 1-.448 1-1v-8c0-.552-.448-1-1-1z" fill="#803916"/><path d="m24 7h-4c-.552 0-1 .448-1 1v8c0 .552.448 1 1 1h4c.552 0 1-.448 1-1v-8c0-.552-.448-1-1-1z" fill="#803916"/><path d="m29 7h6v10h-6z" fill="none"/><path d="m34 7h-4c-.552 0-1 .448-1 1v8c0 .552.448 1 1 1h4c.552 0 1-.448 1-1v-8c0-.552-.448-1-1-1z" fill="#803916"/><path d="m34.4 20h-4.8c-.663 0-1.2.537-1.2 1.2v9.6c0 .663.537 1.2 1.2 1.2h4.8c.663 0 1.2-.537 1.2-1.2v-9.6c0-.663-.537-1.2-1.2-1.2z" fill="#522813"/><path d="m24.4 20h-4.8c-.663 0-1.2.537-1.2 1.2v9.6c0 .663.537 1.2 1.2 1.2h4.8c.663 0 1.2-.537 1.2-1.2v-9.6c0-.663-.537-1.2-1.2-1.2z" fill="#522813"/><path d="m44.4 20h-4.8c-.663 0-1.2.537-1.2 1.2v9.6c0 .663.537 1.2 1.2 1.2h4.8c.663 0 1.2-.537 1.2-1.2v-9.6c0-.663-.537-1.2-1.2-1.2z" fill="#522813"/><path d="m34 21h-4c-.552 0-1 .448-1 1v8c0 .552.448 1 1 1h4c.552 0 1-.448 1-1v-8c0-.552-.448-1-1-1z" fill="#803916"/><path d="m44 21h-4c-.552 0-1 .448-1 1v8c0 .552.448 1 1 1h4c.552 0 1-.448 1-1v-8c0-.552-.448-1-1-1z" fill="#803916"/><path d="m24 21h-4c-.552 0-1 .448-1 1v8c0 .552.448 1 1 1h4c.552 0 1-.448 1-1v-8c0-.552-.448-1-1-1z" fill="#803916"/><path d="m34.4 34h-4.8c-.663 0-1.2.537-1.2 1.2v9.6c0 .663.537 1.2 1.2 1.2h4.8c.663 0 1.2-.537 1.2-1.2v-9.6c0-.663-.537-1.2-1.2-1.2z" fill="#522813"/><path d="m24.4 34h-4.8c-.663 0-1.2.537-1.2 1.2v9.6c0 .663.537 1.2 1.2 1.2h4.8c.663 0 1.2-.537 1.2-1.2v-9.6c0-.663-.537-1.2-1.2-1.2z" fill="#522813"/><path d="m44.4 34h-4.8c-.663 0-1.2.537-1.2 1.2v9.6c0 .663.537 1.2 1.2 1.2h4.8c.663 0 1.2-.537 1.2-1.2v-9.6c0-.663-.537-1.2-1.2-1.2z" fill="#522813"/><path d="m19 36v1.5l6 3.375v-4.875c0-.552-.448-1-1-1h-4c-.552 0-1 .448-1 1z" fill="#803916"/><path d="m34 35h-4c-.552 0-1 .448-1 1v5.407l6-1.778v-3.629c0-.552-.448-1-1-1z" fill="#803916"/><path d="m44 35h-4c-.552 0-1 .448-1 1v2.444l6-1.778v-.666c0-.552-.448-1-1-1z" fill="#803916"/><path d="m41 53 4-5 4 .727v-4.156l-4-.571-6 6-12-8-9 9-3-7.714v12.714l12-10z" fill="#c94337"/><path d="m25 40.875-6-3.375-8-4.5 4 10.286 3 7.714 9-9z" fill="#bfbfbf"/><path d="m49 35.482-4 1.185-6 1.777-4 1.186-6 1.777-2 .593 12 8 6-6 4 .571 3 .429 2-11z" fill="#bfbfbf"/></svg>