<svg id="Capa_1" enable-background="new 0 0 511.997 511.997" height="512" viewBox="0 0 511.997 511.997" width="512" xmlns="http://www.w3.org/2000/svg"><g><g><path d="m169.508 95.761h230.687v75.165h-230.687z" fill="#f9efda"/><path d="m400.195 95.761v30.641c-76.896 2.516-153.792 2.516-230.688 0v-30.641z" fill="#f6e4c1"/><path d="m169.506 95.759h75.169v75.169h-75.169z" fill="#f6e4c1"/><path d="m439.152 155.33c-102.867-6.851-205.734-6.851-308.6 0-30.848 2.054-55.736 26.089-58.596 56.873-7.133 76.761-7.133 153.522 0 230.282 2.861 30.784 27.748 54.819 58.596 56.873 102.867 6.851 205.734 6.851 308.6 0 30.848-2.054 55.736-26.089 58.596-56.873 7.133-76.761 7.133-153.522 0-230.282-2.861-30.784-27.748-54.819-58.596-56.873z" fill="#f9efda"/><path d="m473.211 436.074c-2.37 25.511-22.991 45.424-48.555 47.129-85.239 5.673-170.468 5.673-255.707 0-25.564-1.705-46.185-21.618-48.555-47.129-.268-2.885-.525-5.78-.761-8.664 8.386 7.313 19.141 11.989 30.947 12.782 85.239 5.673 170.468 5.673 255.707 0 25.564-1.705 46.185-21.618 48.555-47.129 5.64-60.726 5.898-121.43.761-182.146 9.769 8.514 16.332 20.621 17.608 34.347 5.908 63.599 5.908 127.199 0 190.81z" fill="#f6e4c1"/><path d="m143.7 450.064c1.273 21.909 9.04 40.606 20.159 51.267-11.099-.577-22.208-1.243-33.306-1.979-30.84-2.049-55.733-26.086-58.597-56.866-7.131-76.766-7.131-153.523 0-230.29 2.864-30.78 27.757-54.818 58.597-56.866 11.099-.736 22.207-1.402 33.306-1.979-11.119 10.661-18.886 29.358-20.159 51.267-4.724 81.818-4.724 163.627 0 245.446z" fill="#f6e4c1"/><path d="m402.796 110.126c-78.629 2.624-157.259 2.624-235.888 0-13.086-.437-23.993-10.06-26.188-22.969-3.102-18.241-3.102-36.482 0-54.724 2.195-12.908 13.101-22.532 26.188-22.969 78.629-2.624 157.259-2.624 235.888 0 13.086.437 23.993 10.06 26.188 22.969 3.102 18.241 3.102 36.482 0 54.724-2.195 12.909-13.102 22.532-26.188 22.969z" fill="#90d8f9"/><path d="m235.647 111.743c-22.914-.318-45.827-.855-68.741-1.621-13.088-.438-23.998-10.055-26.186-22.963-3.103-18.239-3.103-36.489 0-54.728 2.188-12.909 13.098-22.526 26.186-22.963 22.914-.766 45.817-1.303 68.731-1.621-9.09 3.879-15.902 12.193-17.653 22.426-3.342 19.681-3.342 39.363 0 59.044 1.751 10.234 8.563 18.558 17.663 22.426z" fill="#75cef9"/><g><circle cx="263.215" cy="333.735" fill="#df73c1" r="55.608"/><path d="m280.371 386.645c-5.401 1.752-11.171 2.701-17.163 2.701-30.705 0-55.602-24.897-55.602-55.611 0-30.705 24.897-55.602 55.602-55.602 5.992 0 11.761.949 17.163 2.701-22.312 7.231-38.449 28.178-38.449 52.901 0 24.722 16.137 45.679 38.449 52.91z" fill="#dd4fb1"/></g><g><circle cx="318.824" cy="419.199" fill="#b3e59f" r="55.608"/><path d="m335.979 472.11c-5.401 1.752-11.171 2.701-17.163 2.701-30.705 0-55.602-24.897-55.602-55.611 0-30.705 24.897-55.602 55.602-55.602 5.992 0 11.761.949 17.163 2.701-22.312 7.231-38.449 28.178-38.449 52.901.001 24.722 16.137 45.679 38.449 52.91z" fill="#95d6a4"/></g><g><circle cx="212.114" cy="419.199" fill="#ffe07d" r="55.608"/><path d="m229.27 472.11c-5.401 1.752-11.171 2.701-17.163 2.701-30.705 0-55.602-24.897-55.602-55.611 0-30.705 24.897-55.602 55.602-55.602 5.992 0 11.761.949 17.163 2.701-22.312 7.231-38.449 28.178-38.449 52.901 0 24.722 16.137 45.679 38.449 52.91z" fill="#ffd064"/></g><g><circle cx="411.283" cy="414.115" fill="#ffe07d" r="55.608"/><path d="m428.439 467.026c-5.401 1.752-11.171 2.701-17.163 2.701-30.705 0-55.602-24.897-55.602-55.611 0-30.705 24.897-55.602 55.602-55.602 5.992 0 11.761.949 17.163 2.701-22.312 7.231-38.449 28.178-38.449 52.901 0 24.722 16.137 45.679 38.449 52.91z" fill="#ffd064"/></g><g><circle cx="66.501" cy="446.918" fill="#bc95e2" r="57.575"/><path d="m84.264 501.701c-5.592 1.814-11.566 2.796-17.77 2.796-31.791 0-57.568-25.777-57.568-57.578 0-31.791 25.778-57.568 57.568-57.568 6.204 0 12.177.982 17.77 2.796-23.102 7.487-39.809 29.175-39.809 54.772 0 25.596 16.707 47.295 39.809 54.782z" fill="#ac80dd"/></g></g><g><path d="m505.219 211.513c-3.211-34.57-30.786-61.347-65.569-63.669-10.637-.708-21.293-1.325-31.958-1.887v-28.807c14.456-2.462 26.171-13.927 28.684-28.736 3.227-18.988 3.227-38.245 0-57.231-2.78-16.383-16.801-28.668-33.333-29.211-11.009-.37-21.855-.681-32.237-.923-4.114-.114-7.577 3.182-7.673 7.323-.097 4.141 3.182 7.576 7.323 7.673 10.33.241 21.125.55 32.088.918 9.442.31 17.45 7.345 19.042 16.73 2.943 17.321 2.943 34.886 0 52.209-1.591 9.375-9.602 16.411-19.046 16.729-78.099 2.602-157.292 2.602-235.378 0-9.446-.318-17.457-7.353-19.048-16.731-2.944-17.321-2.944-34.886 0-52.209 1.591-9.383 9.6-16.418 19.046-16.729 57.588-1.929 115.927-2.439 173.398-1.517 4.177.031 7.553-3.237 7.62-7.378.066-4.142-3.237-7.553-7.378-7.62-57.718-.927-116.308-.414-174.137 1.523-16.539.543-30.559 12.828-33.338 29.209-3.227 18.989-3.227 38.245 0 57.231 2.512 14.807 14.222 26.271 28.675 28.736v28.81c-10.662.562-21.316 1.178-31.95 1.886-34.782 2.323-62.357 29.1-65.568 63.669-5.26 56.581-6.649 113.945-4.16 170.635-32.997 3.123-58.902 30.973-58.902 64.769 0 35.885 29.195 65.08 65.08 65.08 13.991 0 26.954-4.454 37.577-11.999 8.139 3.929 16.85 6.24 25.974 6.842 51.365 3.42 103.072 5.13 154.798 5.13 51.713 0 103.445-1.71 154.797-5.13 34.782-2.311 62.358-29.083 65.571-63.659 7.142-76.86 7.142-154.804.002-231.666zm-328.216-93.568c35.809 1.088 71.825 1.638 107.846 1.638 36.017 0 72.034-.55 107.844-1.637v27.271c-71.736-3.312-143.954-3.312-215.69 0zm313.281 323.848c-2.527 27.198-24.241 48.26-51.631 50.08-102.055 6.796-205.548 6.796-307.607 0-5.123-.338-10.078-1.364-14.824-3.037 9.567-11.333 15.351-25.96 15.351-41.919 0-12.376-3.488-24.414-10.088-34.81-2.22-3.498-6.855-4.532-10.352-2.312s-4.532 6.854-2.312 10.352c5.071 7.988 7.752 17.246 7.752 26.771 0 27.614-22.461 50.08-50.07 50.08-27.614 0-50.08-22.466-50.08-50.08 0-27.608 22.466-50.07 50.08-50.07 8.156 0 16.236 1.998 23.368 5.777 3.659 1.94 8.2.545 10.139-3.115s.545-8.199-3.115-10.139c-6.687-3.544-14.01-5.877-21.54-6.91-2.519-56.326-1.161-113.333 4.065-169.559 2.526-27.195 24.24-48.261 51.631-50.09 102.055-6.796 205.547-6.796 307.602 0 27.392 1.829 49.106 22.895 51.632 50.09 7.053 75.94 7.053 152.95-.001 228.891z"/><path d="m411.283 351.007c-19.521 0-36.998 8.911-48.583 22.878-10.879-10.491-25.309-16.867-40.489-17.696 2.709-7.114 4.111-14.702 4.111-22.451 0-34.799-28.311-63.11-63.11-63.11-34.793 0-63.1 28.311-63.1 63.11 0 7.883 1.464 15.612 4.271 22.845-31.162 3.826-55.377 30.438-55.377 62.618 0 34.798 28.31 63.108 63.108 63.108 22.433 0 42.155-11.774 53.349-29.458 11.377 17.915 31.459 29.457 53.359 29.457 18.861 0 36.715-8.574 48.603-22.878 11.364 11.003 26.829 17.795 43.859 17.795 34.798 0 63.109-28.31 63.109-63.108s-28.312-63.11-63.11-63.11zm-148.071-65.38c26.528 0 48.11 21.582 48.11 48.11 0 8.454-2.191 16.651-6.35 23.892-16.431 3.69-30.646 13.913-39.516 27.909-9.7-15.316-25.798-26.185-44.515-28.817-3.822-7.015-5.829-14.892-5.829-22.984 0-26.528 21.577-48.11 48.1-48.11zm-51.098 181.681c-26.527 0-48.108-21.582-48.108-48.108s21.582-48.108 48.108-48.108 48.108 21.582 48.108 48.108-21.581 48.108-48.108 48.108zm106.708-.001c-20.528 0-38.967-13.294-45.539-32.57 1.264-4.973 1.94-10.177 1.94-15.537 0-5.359-.676-10.563-1.94-15.534 5.657-16.609 20.203-29.04 37.596-31.921 2.609-.437 5.281-.658 7.942-.658 13.743 0 26.46 5.69 35.567 15.733-3.981 8.265-6.214 17.524-6.214 27.295 0 12.23 3.508 23.65 9.554 33.33-8.995 12.343-23.503 19.862-38.906 19.862zm92.461-5.084c-26.527 0-48.108-21.582-48.108-48.108s21.582-48.108 48.108-48.108c26.527 0 48.109 21.582 48.109 48.108s-21.582 48.108-48.109 48.108z"/></g></g></svg>