<svg height="512" viewBox="0 0 512 512" width="512" xmlns="http://www.w3.org/2000/svg"><g id="flat"><path d="m488 472h-464l232-448z" fill="#fb3260"/><path d="m420.01 340.709a127.9 127.9 0 0 1 -108.01 59.291 128 128 0 0 1 -128-128v-108.966l-160 308.966h464z" fill="#d71441"/><path d="m312 368v60.506a142.169 142.169 0 0 1 -112 0v-60.506z" fill="#3735c7"/><path d="m232 412.506v-44.506h-32v60.506a142.16 142.16 0 0 0 112 0v-6.555a142.15 142.15 0 0 1 -80-9.445z" fill="#0a0f7d"/><path d="m240 112h32v80h-32z" fill="#a9edff"/><rect fill="#a9edff" height="32" rx="16" width="32" x="240" y="224"/><path d="m144 288a112 112 0 0 0 224 0z" fill="#3735c7"/><path d="m288 352a112.006 112.006 0 0 1 -101.215-64h-42.785a112.018 112.018 0 0 0 218.1 35.979 111.568 111.568 0 0 1 -74.1 28.021z" fill="#0a0f7d"/><path d="m218.885 280h130.231v16.001h-130.231z" fill="#f9e083" transform="matrix(.676 -.737 .737 .676 -120.207 302.734)"/><path d="m263.431 288h113.137v16h-113.137z" fill="#f9e083" transform="matrix(.707 -.707 .707 .707 -115.579 312.952)"/><path d="m200 412.506v16a142.16 142.16 0 0 0 112 0v-16a142.16 142.16 0 0 1 -112 0z" fill="#df2f19"/></g></svg>